<?xml version="1.0" standalone="no"?>
<!DOCTYPE svg PUBLIC "-//W3C//DTD SVG 20010904//EN"
 "http://www.w3.org/TR/2001/REC-SVG-20010904/DTD/svg10.dtd">
<svg version="1.0" xmlns="http://www.w3.org/2000/svg"
 width="512.000000pt" height="512.000000pt" viewBox="0 0 512.000000 512.000000"
 preserveAspectRatio="xMidYMid meet">

<g transform="translate(0.000000,512.000000) scale(0.100000,-0.100000)"
fill="#000000" stroke="none">
<path d="M0 2560 l0 -2560 2560 0 2560 0 0 2560 0 2560 -2560 0 -2560 0 0
-2560z m5010 0 l0 -2450 -2450 0 -2450 0 0 2450 0 2450 2450 0 2450 0 0 -2450z"/>
<path d="M1395 4408 c3 -13 34 -218 69 -457 36 -238 67 -435 68 -437 2 -2 14
54 26 124 l23 127 -46 305 c-25 168 -48 317 -51 333 -5 25 -10 27 -50 27 -41
0 -44 -2 -39 -22z"/>
<path d="M2030 4423 c0 -16 161 -879 167 -893 3 -8 14 37 24 100 l18 115 -59
320 c-33 176 -62 330 -65 343 -5 18 -12 22 -45 22 -22 0 -40 -3 -40 -7z"/>
<path d="M2668 4413 c-2 -10 -65 -359 -139 -775 l-134 -758 -128 0 c-117 0
-128 -1 -123 -17 2 -10 7 -33 11 -50 l7 -33 169 0 c93 0 169 2 169 5 0 3 22
130 50 283 93 521 240 1350 240 1356 0 3 -26 6 -59 6 -48 0 -60 -3 -63 -17z"/>
<path d="M3620 4426 c0 -3 92 -297 204 -653 251 -798 276 -878 276 -886 0 -4
-62 -8 -139 -9 l-138 -3 14 -47 14 -48 180 0 c99 0 178 3 176 8 -3 4 -73 225
-157 492 -182 581 -325 1037 -346 1103 -15 44 -18 47 -50 47 -19 0 -34 -2 -34
-4z"/>
<path d="M3428 4064 c-6 -9 -148 -546 -148 -558 0 -3 29 -6 64 -6 l63 0 43
163 c24 89 42 171 42 182 -3 38 -59 229 -64 219z"/>
<path d="M1770 3365 l-94 -485 -127 0 -126 0 8 -42 c4 -24 8 -46 9 -50 0 -7
340 -12 340 -5 0 1 34 172 75 380 l74 379 -30 146 c-16 81 -30 151 -32 155 -1
4 -45 -211 -97 -478z"/>
<path d="M3159 3050 l-44 -170 -111 0 -112 0 -11 -44 c-6 -25 -11 -47 -11 -50
0 -3 79 -6 175 -6 174 0 175 0 180 23 4 13 23 88 44 168 l38 144 187 3 c203 3
194 -1 175 65 l-10 37 -228 0 -228 0 -44 -170z"/>
<path d="M1510 2115 l0 -85 -205 0 -205 0 0 -690 0 -690 -115 0 -115 0 0 -50
0 -50 165 0 165 0 0 685 0 685 205 0 205 0 0 140 0 140 -50 0 -50 0 0 -85z"/>
<path d="M2050 1425 l0 -775 -115 0 -115 0 0 -50 0 -50 165 0 165 0 0 825 0
825 -50 0 -50 0 0 -775z"/>
<path d="M3990 1893 c0 -168 2 -304 4 -302 2 2 27 42 55 89 l51 85 0 218 0
217 -55 0 -55 0 0 -307z"/>
<path d="M4548 1897 c-108 -166 -198 -306 -200 -312 -1 -5 104 -216 235 -467
130 -252 237 -460 237 -463 0 -3 -77 -5 -170 -5 l-170 0 25 -50 25 -50 196 0
c183 0 196 1 190 17 -4 10 -111 218 -237 462 -127 243 -228 448 -226 455 3 6
106 167 231 358 124 191 226 350 226 353 0 3 -37 5 -82 5 l-83 0 -197 -303z"/>
<path d="M3363 2090 c47 -86 65 -150 92 -322 l5 -28 -120 0 -120 0 0 -50 0
-50 171 0 171 0 -7 53 c-22 168 -75 295 -161 384 l-56 58 25 -45z"/>
<path d="M2769 2027 c-59 -31 -94 -91 -114 -194 -24 -121 -17 -691 9 -773 17
-51 79 -130 103 -130 6 0 3 22 -5 53 -13 42 -16 115 -16 382 -1 364 6 419 62
499 42 61 90 81 194 81 l87 0 -17 30 c-28 48 -93 75 -183 75 -60 0 -85 -5
-120 -23z"/>
<path d="M470 1975 l0 -55 150 0 150 0 0 55 0 55 -150 0 -150 0 0 -55z"/>
<path d="M4057 1207 l-67 -85 0 -236 0 -236 -115 0 -115 0 0 -50 0 -50 170 0
170 0 0 239 0 239 45 55 c25 31 45 62 45 69 -1 7 -16 41 -33 76 l-33 63 -67
-84z"/>
<path d="M3428 1028 c-47 -192 -165 -318 -353 -374 -45 -14 -93 -19 -195 -18
-147 0 -221 17 -305 71 -39 25 -39 24 15 -31 61 -63 159 -117 248 -135 73 -15
234 -13 313 3 232 50 373 226 402 504 l6 52 -57 0 -57 0 -17 -72z"/>
</g>
</svg>
